HIERARCHY
ROOT root
{
	OFFSET	0	13.1	24.9
	CHANNELS 6  Xposition Yposition Zposition Xrotation Yrotation Zrotation
	JOINT spine_1
	{
		OFFSET	0	9.99999	0
		CHANNELS 3  Xrotation Yrotation Zrotation
		JOINT spine_2
		{
			OFFSET	0	112	-10
			CHANNELS 3  Xrotation Yrotation Zrotation
			JOINT spine_3
			{
				OFFSET	0	206.5	19.3
				CHANNELS 3  Xrotation Yrotation Zrotation
				JOINT spine_4
				{
					OFFSET	0	110.4	14.6
					CHANNELS 3  Xrotation Yrotation Zrotation
					JOINT neck_1
					{
						OFFSET	0	71.8	-50.3
						CHANNELS 3  Xrotation Yrotation Zrotation
						JOINT neck_2
						{
							OFFSET	0	86.2	-25.8
							CHANNELS 3  Xrotation Yrotation Zrotation
							JOINT head_ee
							{
								OFFSET	0	179.8	-8.7
								CHANNELS 3  Xrotation Yrotation Zrotation
								End Site
								{
									OFFSET	1	0	0
								}
							}
						}
					}
					JOINT left_clavicle
					{
						OFFSET	-43.2	22.4	-70.8
						CHANNELS 3  Xrotation Yrotation Zrotation
						JOINT left_shoulder
						{
							OFFSET	-93.9	-5.79999	48.7
							CHANNELS 3  Xrotation Yrotation Zrotation
							JOINT left_elbow
							{
								OFFSET	-291.4	-30.8	15.2
								CHANNELS 3  Xrotation Yrotation Zrotation
								JOINT left_lowarm_twist
								{
									OFFSET	-110.7	-3.89999	13.6
									CHANNELS 3  Xrotation Yrotation Zrotation
									JOINT left_hand
									{
										OFFSET	-110.7	-3.89999	13.6
										CHANNELS 3  Xrotation Yrotation Zrotation
										JOINT left_ee
										{
											OFFSET	-80.8	-5.10001	12.1
											CHANNELS 3  Xrotation Yrotation Zrotation
											End Site
											{
												OFFSET	1	0	0
											}
										}
									}
								}
							}
						}
					}
					JOINT right_clavicle
					{
						OFFSET	43.2	22.4	-70.8
						CHANNELS 3  Xrotation Yrotation Zrotation
						JOINT right_shoulder
						{
							OFFSET	93.9	-5.79999	48.7
							CHANNELS 3  Xrotation Yrotation Zrotation
							JOINT right_elbow
							{
								OFFSET	291.4	-30.8	15.2
								CHANNELS 3  Xrotation Yrotation Zrotation
								JOINT right_lowarm_twist
								{
									OFFSET	110.7	-3.89999	13.6
									CHANNELS 3  Xrotation Yrotation Zrotation
									JOINT right_hand
									{
										OFFSET	110.7	-3.89999	13.6
										CHANNELS 3  Xrotation Yrotation Zrotation
										JOINT right_ee
										{
											OFFSET	80.8	-5.10001	12.1
											CHANNELS 3  Xrotation Yrotation Zrotation
											End Site
											{
												OFFSET	1	0	0
											}
										}
									}
								}
							}
						}
					}
				}
			}
		}
	}
	JOINT left_hip
	{
		OFFSET	-82.8	-127.5	0.300001
		CHANNELS 3  Xrotation Yrotation Zrotation
		JOINT left_knee
		{
			OFFSET	-28.2	-396.7	2.2
			CHANNELS 3  Xrotation Yrotation Zrotation
			JOINT left_ankle
			{
				OFFSET	-11.7	-411.3	35.4
				CHANNELS 3  Xrotation Yrotation Zrotation
				JOINT left_toes
				{
					OFFSET	0	-60	-88.6
					CHANNELS 3  Xrotation Yrotation Zrotation
					JOINT left_foot_ee
					{
						OFFSET	-22.5	-16.5	-42.2
						CHANNELS 3  Xrotation Yrotation Zrotation
						End Site
						{
							OFFSET	1	0	0
						}
					}
				}
			}
		}
	}
	JOINT right_hip
	{
		OFFSET	82.8	-127.5	0.300001
		CHANNELS 3  Xrotation Yrotation Zrotation
		JOINT right_knee
		{
			OFFSET	28.2	-396.7	2.2
			CHANNELS 3  Xrotation Yrotation Zrotation
			JOINT right_ankle
			{
				OFFSET	11.7	-411.3	35.4
				CHANNELS 3  Xrotation Yrotation Zrotation
				JOINT right_toes
				{
					OFFSET	0	-60	-88.6
					CHANNELS 3  Xrotation Yrotation Zrotation
					JOINT right_foot_ee
					{
						OFFSET	22.5	-16.5	-42.2
						CHANNELS 3  Xrotation Yrotation Zrotation
						End Site
						{
							OFFSET	1	0	0
						}
					}
				}
			}
		}
	}
}
MOTION
Frames: 14
Frame Time: 0.02
3415.26186797 709.195 -1594.67666318 5.79371646798 76.354195945 -13.3453792735 0.427804 0.762223 3.26903 0.433579 0.552779 3.31084 0.468301 -0.127841 3.35418 0.452829 0.403194 3.33234 -0.964657 17.6062 -3.24815 -0.0309002 34.2445 -1.61692 -0.0 0.0 -0.0 -5.25264 20.1201 -5.4008 -9.91315 -5.29776 71.6161 0.567115 -15.6919 0.0781491 20.716 0.258946 -2.61923 -1.14771 19.675 1.08953 -0.0 0.0 -0.0 14.0903 26.7828 -28.1152 15.1173 16.3335 -72.3668 0.471582 13.1491 -0.0543522 27.5127 -0.13651 3.47829 2.23383 -0.727065 -15.3897 0.0 0.0 0.0 8.93823 -2.6556 3.65945 -30.9135 0.00799314 4.68699 41.758 13.3908 -5.06362 -5.27283 0.0 0.0 -0.0 0.0 -0.0 -14.4113 16.5829 5.08739 4.44219 0.208251 0.649574 40.5601 -2.19933 4.91131 -22.5032 0.0 0.0 0.0 0.0 0.0 
3400.07217684 709.201 -1595.57121466 6.67648744462 74.7237942415 -14.1859039066 0.426066 1.15591 3.14061 0.431047 0.953829 3.20771 0.487518 0.287592 3.33401 0.472923 0.81025 3.24691 0.70935 17.4447 -4.12205 1.93472 34.3673 -3.12289 -0.0 0.0 -0.0 -5.65959 20.1832 -5.99415 -12.8177 -4.65991 71.9566 0.506599 -14.0879 0.0625973 19.2485 0.271952 -2.43224 -0.628122 18.1763 3.56588 -0.0 0.0 -0.0 14.1671 26.9446 -28.2737 15.6662 16.3433 -72.2899 0.59631 16.457 -0.0862332 26.6945 -0.156634 3.37572 1.96452 -2.83335 -14.3572 0.0 0.0 0.0 10.4284 -4.46283 5.31128 -30.8811 0.00930944 4.6822 41.4971 13.4091 -5.04154 -9.35558 0.0 0.0 -0.0 0.0 -0.0 -15.5274 19.2467 6.30424 5.00215 0.238067 0.730277 39.2368 -0.679184 4.80505 -21.1189 0.0 0.0 0.0 0.0 0.0 
3401.86650217 709.201 -1598.11984151 6.33695595181 73.887343068 -13.8332332862 0.426066 1.15591 3.14061 0.431047 0.953829 3.20771 0.487518 0.287592 3.33401 0.472923 0.81025 3.24691 0.70935 17.4447 -4.12205 1.93472 34.3673 -3.12289 -0.0 0.0 -0.0 -5.65959 20.1832 -5.99415 -12.8177 -4.65991 71.9566 0.506599 -14.0879 0.0625973 19.2485 0.271952 -2.43224 -0.628122 18.1763 3.56588 -0.0 0.0 -0.0 14.1671 26.9446 -28.2737 15.6662 16.3433 -72.2899 0.59631 16.457 -0.0862332 26.6945 -0.156634 3.37572 1.96452 -2.83335 -14.3572 0.0 0.0 0.0 10.4284 -4.46283 5.31128 -30.8811 0.00930944 4.6822 41.4971 13.4091 -5.04154 -9.35558 0.0 0.0 -0.0 0.0 -0.0 -15.5274 19.2467 6.30424 5.00215 0.238067 0.730277 39.2368 -0.679184 4.80505 -21.1189 0.0 0.0 0.0 0.0 0.0 
3402.72623053 709.201 -1599.31335412 6.18883912219 73.4924240365 -13.678906576 0.426066 1.15591 3.14061 0.431047 0.953829 3.20771 0.487518 0.287592 3.33401 0.472923 0.81025 3.24691 0.70935 17.4447 -4.12205 1.93472 34.3673 -3.12289 -0.0 0.0 -0.0 -5.65959 20.1832 -5.99415 -12.8177 -4.65991 71.9566 0.506599 -14.0879 0.0625973 19.2485 0.271952 -2.43224 -0.628122 18.1763 3.56588 -0.0 0.0 -0.0 14.1671 26.9446 -28.2737 15.6662 16.3433 -72.2899 0.59631 16.457 -0.0862332 26.6945 -0.156634 3.37572 1.96452 -2.83335 -14.3572 0.0 0.0 0.0 10.4284 -4.46283 5.31128 -30.8811 0.00930944 4.6822 41.4971 13.4091 -5.04154 -9.35558 0.0 0.0 -0.0 0.0 -0.0 -15.5274 19.2467 6.30424 5.00215 0.238067 0.730277 39.2368 -0.679184 4.80505 -21.1189 0.0 0.0 0.0 0.0 0.0 
3391.93488775 711.005 -1594.78575374 4.97067436014 76.4642744051 -12.5714791804 0.62507 1.07629 3.0504 0.629816 0.880099 3.11262 0.680163 0.245279 3.22523 0.666436 0.751313 3.14616 1.30547 17.0703 -5.11636 2.67943 34.4059 -4.45448 -0.0 0.0 -0.0 -5.83038 19.5058 -6.44043 -14.6178 -4.60932 72.153 0.497677 -13.8494 0.0604438 17.7156 0.28042 -2.23664 -0.305449 17.5718 5.27797 -0.0 0.0 -0.0 14.2587 27.1899 -28.4554 16.2369 16.305 -72.1363 0.745005 20.2567 -0.133088 26.3938 -0.163664 3.33794 1.68383 -4.152 -12.9527 0.0 0.0 0.0 10.265 -7.02254 5.24479 -27.6858 0.125724 4.2057 34.8865 13.54 -4.42971 -10.522 0.0 0.0 -0.0 0.0 -0.0 -15.8005 19.5021 6.92096 6.89632 0.344759 1.00108 39.0458 -0.499835 4.78944 -20.2162 0.0 0.0 0.0 0.0 0.0 
3370.24063484 707.519 -1589.00664565 6.89239406579 81.1608776494 -14.8165337415 0.810252 0.87253 3.20057 0.815703 0.667212 3.24953 0.855727 0.0192791 3.3172 0.840783 0.542642 3.27262 -0.231285 16.8013 -5.70223 0.965674 34.6239 -4.63115 -0.0 0.0 -0.0 -6.41072 19.8401 -7.22878 -18.7853 -4.5365 72.5622 0.578928 -16.0022 0.0813751 14.3866 0.280776 -1.8115 0.313041 16.3736 8.61642 -0.0 0.0 -0.0 14.2796 27.9916 -28.3934 17.4308 16.9859 -72.4703 1.16273 29.9402 -0.310912 26.8232 -0.153566 3.39187 1.21176 -6.35198 -10.6259 0.0 0.0 0.0 12.8991 -12.0906 3.93598 -21.105 0.280869 3.20826 18.4165 17.1161 -2.57035 -12.8967 0.0 0.0 -0.0 0.0 -0.0 -16.8022 20.5226 7.06907 4.0191 0.186249 0.588409 40.4448 -0.529235 4.91029 -16.966 0.0 0.0 0.0 0.0 0.0 
3356.66559604 705.179 -1583.21845357 3.70286715953 82.3517046751 -11.1578600442 0.813704 0.957242 3.28366 0.819392 0.746474 3.33784 0.86524 0.0804569 3.41925 0.849461 0.619145 3.36375 -2.42141 16.602 -5.09992 -1.61871 34.0727 -3.25682 -0.0 0.0 -0.0 -6.78061 20.7071 -7.52524 -21.3536 -4.62888 72.0094 0.700643 -19.1408 0.118134 13.3481 0.275833 -1.67895 0.491417 16.3972 9.73458 -0.0 0.0 -0.0 13.7622 27.5237 -27.252 18.7285 18.1259 -72.5779 1.33593 33.494 -0.402009 27.6616 -0.132689 3.49693 1.2938 -5.53959 -10.8611 0.0 0.0 0.0 13.8919 -11.6973 3.05844 -18.9523 0.306634 2.87898 15.7721 18.174 -2.23217 -13.6377 0.0 0.0 -0.0 0.0 -0.0 -17.7281 21.2742 7.62095 5.27577 0.252923 0.769607 40.7881 -1.99388 4.93146 -17.6375 0.0 0.0 0.0 0.0 0.0 
3352.53666856 704.611 -1581.83209583 -0.00722267653157 81.7630214909 -8.37832607738 0.941201 1.09427 3.51212 0.947644 0.868717 3.57453 1.00436 0.163304 3.67482 0.986283 0.741244 3.60308 -4.49576 16.1835 -4.69233 -4.03942 33.2257 -2.19578 -0.0 0.0 -0.0 -6.81815 21.2973 -7.39727 -23.6906 -4.75924 72.0126 0.825959 -22.2521 0.162439 12.6431 0.271109 -1.58903 0.511994 16.35 9.84547 -0.0 0.0 -0.0 13.7383 27.219 -27.2369 20.5784 18.8205 -72.1841 1.45987 35.8715 -0.472555 28.2906 -0.116016 3.57555 1.18452 -5.53485 -10.1299 0.0 0.0 0.0 14.0945 -11.207 2.09432 -15.9633 0.321864 2.42069 15.1571 20.4203 -2.16779 -14.7055 0.0 0.0 -0.0 0.0 -0.0 -18.6035 21.4017 7.89772 7.10169 0.356865 1.03023 40.4969 -3.67605 4.90164 -18.9601 0.0 0.0 0.0 0.0 0.0 
3347.77940978 707.479 -1583.37728835 -0.817651646139 81.4475371554 -7.29894892804 0.992375 1.1047 3.52574 0.998861 0.878255 3.58878 1.05631 0.173285 3.69049 1.0381 0.75357 3.61698 -5.01428 15.6666 -4.7593 -4.64361 32.3722 -2.18283 -0.0 0.0 -0.0 -6.83969 21.3528 -7.41188 -24.7256 -4.87212 71.959 0.851401 -22.8678 0.1722 12.3955 0.269187 -1.55746 0.569317 16.3511 10.2035 -0.0 0.0 -0.0 13.8505 27.3979 -27.4742 21.5455 19.3197 -72.9621 1.53793 37.2992 -0.51908 28.4904 -0.110539 3.60049 1.21403 -5.3934 -10.2721 0.0 0.0 0.0 14.7194 -10.3445 1.29131 -13.5639 0.316784 2.05261 14.0506 21.995 -2.03117 -15.4117 0.0 0.0 -0.0 0.0 -0.0 -18.928 21.7926 8.10733 7.13807 0.359021 1.03539 40.8307 -4.50653 4.92902 -19.504 0.0 0.0 0.0 0.0 0.0 
3341.64914192 706.434 -1585.40929765 2.44145580052 80.7223672733 -10.3559410845 1.01242 1.04666 3.55703 1.01908 0.81835 3.61632 1.0731 0.110169 3.706 1.0546 0.693688 3.64225 -5.66314 14.9342 -4.86583 -5.38909 31.151 -2.22008 -0.0 0.0 -0.0 -6.98178 21.4222 -7.60094 -26.2129 -4.92595 71.6562 0.88298 -23.6244 0.184664 12.0521 0.266296 -1.51369 0.650516 16.3531 10.7118 -0.0 0.0 -0.0 13.8325 27.5478 -27.4123 22.3626 19.9303 -73.8668 1.63976 39.0835 -0.582049 28.7773 -0.102525 3.63625 1.25649 -5.19784 -10.48 0.0 0.0 0.0 15.5539 -9.12431 0.192894 -10.1544 0.283072 1.53062 12.4555 24.193 -1.82983 -16.4203 0.0 0.0 -0.0 0.0 -0.0 -19.2405 22.3574 8.26699 7.1832 0.361699 1.04179 41.2984 -5.77905 4.96902 -20.3004 0.0 0.0 0.0 0.0 0.0 
3330.15201897 706.121 -1581.26005183 -0.157077732751 79.4796424132 -7.74556218055 1.12488 1.2248 3.65549 1.13177 0.989872 3.72589 1.19855 0.26633 3.84576 1.17897 0.869923 3.75566 -6.06151 14.2985 -4.27784 -5.87217 29.5776 -1.61904 -0.0 0.0 -0.0 -7.27282 22.7778 -7.58756 -29.1198 -4.94475 72.3234 0.92712 -24.6674 0.202721 11.3703 0.259778 -1.42684 0.800538 15.7374 11.4321 -0.0 0.0 -0.0 13.6678 27.4988 -27.036 23.1576 20.3016 -73.7376 1.79225 41.5957 -0.680783 29.1873 -0.0907582 3.6873 1.34107 -4.92114 -10.9392 0.0 0.0 0.0 15.8195 -7.34128 -0.612207 -6.84511 0.220711 1.02671 12.5858 25.584 -1.86206 -17.3157 0.0 0.0 -0.0 0.0 -0.0 -19.4749 22.384 8.14827 6.79292 0.338703 0.986391 41.393 -8.0177 4.98406 -21.4529 0.0 0.0 0.0 0.0 0.0 
3323.23855168 694.116 -1578.16389203 -2.98382528042 78.9350753344 -4.68674575521 1.42797 1.18126 3.65536 1.4349 0.946437 3.72299 1.49809 0.244205 3.83348 1.47858 0.84614 3.74703 -4.9031 13.9719 -4.61457 -4.58324 29.1365 -2.35089 -0.0 0.0 -0.0 -7.29858 22.8011 -7.61712 -30.0422 -4.84839 72.356 0.866666 -23.2346 0.178177 10.9083 0.254775 -1.36805 0.945125 15.1805 12.1482 -0.0 0.0 -0.0 13.5144 27.4254 -26.6901 24.4272 20.886 -73.5452 1.95242 44.0392 -0.789671 30.1722 -0.0610017 3.80959 1.46098 -4.51385 -11.5872 0.0 0.0 0.0 16.1775 -6.50107 -1.01607 -2.13483 0.0819946 0.317345 12.7438 26.1607 -1.89066 -17.9642 0.0 0.0 -0.0 0.0 -0.0 -19.8217 22.4263 7.99657 6.04684 0.2958 0.880064 41.4952 -7.68445 4.99111 -22.8088 0.0 0.0 0.0 0.0 0.0 
3315.66786517 696.649 -1577.03680289 -5.4360083924 78.7600069919 -2.52996001544 1.45499 1.08662 3.63979 1.46195 0.85297 3.70144 1.51858 0.157459 3.79506 1.49927 0.754422 3.72275 -2.82414 13.9664 -4.75096 -2.2843 29.0574 -3.06857 -0.0 0.0 -0.0 -7.33946 22.8378 -7.66403 -30.2044 -4.91647 72.7689 0.790052 -21.3737 0.149097 10.2525 0.246858 -1.28465 1.01048 14.3466 12.2678 -0.0 0.0 -0.0 13.3174 27.2714 -26.2539 24.9237 21.49 -73.7127 1.96027 44.1541 -0.795135 30.3958 -0.0539532 3.83728 1.60832 -3.88081 -12.337 0.0 0.0 0.0 16.7437 -6.87463 -2.2369 0.701439 -0.0295189 -0.103592 13.0226 26.978 -1.93963 -18.9041 0.0 0.0 -0.0 0.0 -0.0 -20.2072 22.4245 8.51034 4.98142 0.236948 0.727294 41.5937 -6.93643 4.99648 -24.475 0.0 0.0 0.0 0.0 0.0 
3291.0749414 693.922 -1574.04865268 -8.04803814794 79.5769117674 0.473075136128 1.45328 1.08978 3.64248 1.46025 0.855958 3.70433 1.51712 0.159774 3.79845 1.49779 0.757243 3.72573 -0.814098 13.9119 -4.9092 -0.0680657 28.8854 -3.78657 -0.0 0.0 -0.0 -7.38487 22.9128 -7.70464 -30.437 -5.02725 73.3004 0.68211 -18.67 0.112129 9.26992 0.233212 -1.15989 1.08535 13.2215 12.3461 -0.0 0.0 -0.0 13.2141 27.0132 -26.0482 26.3351 22.2905 -74.4701 1.97174 44.321 -0.803133 30.7159 -0.0436746 3.87687 1.81713 -2.99527 -13.4126 0.0 0.0 0.0 17.5733 -7.41103 -3.84627 4.75102 -0.224597 -0.694118 13.3343 28.1051 -1.9981 -20.283 0.0 0.0 -0.0 0.0 -0.0 -20.5774 22.4619 8.64155 3.46283 0.15801 0.507752 41.7367 -5.7211 5.00549 -26.534 0.0 0.0 0.0 0.0 0.0 
